<svg width="84" height="84" viewBox="0 0 84 84" fill="none" xmlns="http://www.w3.org/2000/svg">
<ellipse cx="71.4545" cy="22.0244" rx="12.5454" ry="12.8049" fill="#F47C20"/>
<path d="M81.8182 68.122C81.8182 83.6802 76.4456 84 69.8182 84C63.1908 84 57.8182 83.6802 57.8182 68.122C57.8182 52.5637 63.1908 39.9512 69.8182 39.9512C76.4456 39.9512 81.8182 52.5637 81.8182 68.122Z" fill="#D9D9D9"/>
<ellipse cx="42" cy="12.8049" rx="12.5454" ry="12.8049" fill="#F47C20"/>
<path d="M53.4546 58.9024C53.4546 74.4607 48.082 74.7805 41.4546 74.7805C34.8272 74.7805 29.4546 74.4607 29.4546 58.9024C29.4546 43.3442 34.8272 30.7317 41.4546 30.7317C48.082 30.7317 53.4546 43.3442 53.4546 58.9024Z" fill="#F47C20"/>
<ellipse cx="12.5454" cy="22.0244" rx="12.5454" ry="12.8049" fill="#F47C20"/>
<path d="M24 68.122C24 83.6802 18.6274 84 12 84C5.37258 84 0 83.6802 0 68.122C0 52.5637 5.37258 39.9512 12 39.9512C18.6274 39.9512 24 52.5637 24 68.122Z" fill="#D9D9D9"/>
<path d="M25.091 68.122C25.091 83.6802 19.7185 84 13.0911 84C6.46364 84 1.09106 83.6802 1.09106 68.122C1.09106 52.5637 6.46364 39.9512 13.0911 39.9512C19.7185 39.9512 25.091 52.5637 25.091 68.122Z" fill="#F47C20"/>
<path d="M81.8182 68.122C81.8182 83.6802 76.4456 84 69.8182 84C63.1908 84 57.8182 83.6802 57.8182 68.122C57.8182 52.5637 63.1908 39.9512 69.8182 39.9512C76.4456 39.9512 81.8182 52.5637 81.8182 68.122Z" fill="#F47C20"/>
</svg>
